<svg width="20" height="20" viewBox="0 0 20 20" fill="none" xmlns="http://www.w3.org/2000/svg">
<mask id="mask0_2208_2104" style="mask-type:alpha" maskUnits="userSpaceOnUse" x="1" y="1" width="18" height="18">
<path fill-rule="evenodd" clip-rule="evenodd" d="M1.61612 1.61635C2.10427 1.12821 2.89573 1.12821 3.38388 1.61635L18.3839 16.6161C18.872 17.1043 18.872 17.8957 18.3839 18.3839C17.8957 18.872 17.1043 18.872 16.6161 18.3839L1.61612 3.38409C1.12796 2.89595 1.12796 2.1045 1.61612 1.61635Z" fill="#006FFD"/>
<path fill-rule="evenodd" clip-rule="evenodd" d="M18.3839 1.61635C17.8957 1.12821 17.1043 1.12821 16.6161 1.61635L1.61612 16.6161C1.12796 17.1043 1.12796 17.8957 1.61612 18.3839C2.10427 18.872 2.89573 18.872 3.38388 18.3839L18.3839 3.38409C18.872 2.89595 18.872 2.1045 18.3839 1.61635Z" fill="#006FFD"/>
</mask>
<g mask="url(#mask0_2208_2104)">
<rect y="0.000244141" width="20" height="19.9997" fill="#1F2024"/>
</g>
</svg>
