<svg width="12" height="12" viewBox="0 0 12 12" fill="none" xmlns="http://www.w3.org/2000/svg">
<mask id="mask0_2309_2423" style="mask-type:alpha" maskUnits="userSpaceOnUse" x="1" y="1" width="10" height="10">
<path fill-rule="evenodd" clip-rule="evenodd" d="M1 2.25C1 2.05109 1.07525 1.86032 1.20921 1.71967C1.34316 1.57902 1.52485 1.5 1.71429 1.5H10.2857C10.4752 1.5 10.6568 1.57902 10.7908 1.71967C10.9247 1.86032 11 2.05109 11 2.25C11 2.44891 10.9247 2.63968 10.7908 2.78033C10.6568 2.92098 10.4752 3 10.2857 3H1.71429C1.52485 3 1.34316 2.92098 1.20921 2.78033C1.07525 2.63968 1 2.44891 1 2.25ZM2.57396 6C2.57396 5.80109 2.64922 5.61032 2.78317 5.46967C2.91713 5.32902 3.09881 5.25 3.28825 5.25H8.74649C8.93593 5.25 9.1176 5.32902 9.25156 5.46967C9.38551 5.61032 9.46077 5.80109 9.46077 6C9.46077 6.19891 9.38551 6.38968 9.25156 6.53033C9.1176 6.67098 8.93593 6.75 8.74649 6.75H3.28825C3.09881 6.75 2.91713 6.67098 2.78317 6.53033C2.64922 6.38968 2.57396 6.19891 2.57396 6ZM4.40982 9.84917C4.40982 9.65025 4.48508 9.45949 4.61903 9.31884C4.75299 9.17818 4.93467 9.09917 5.12411 9.09917H6.91203C7.10147 9.09917 7.28315 9.17818 7.4171 9.31884C7.55106 9.45949 7.62631 9.65025 7.62631 9.84917C7.62631 10.0481 7.55106 10.2388 7.4171 10.3795C7.28315 10.5201 7.10147 10.5992 6.91203 10.5992H5.12411C4.93467 10.5992 4.75299 10.5201 4.61903 10.3795C4.48508 10.2388 4.40982 10.0481 4.40982 9.84917Z" fill="#006FFD"/>
</mask>
<g mask="url(#mask0_2309_2423)">
<rect x="0.00195312" y="-0.000488281" width="12" height="12" fill="#8F9098"/>
</g>
</svg>
