<svg width="21" height="20" viewBox="0 0 21 20" fill="none" xmlns="http://www.w3.org/2000/svg">
<mask id="mask0_2318_1858" style="mask-type:alpha" maskUnits="userSpaceOnUse" x="1" y="0" width="19" height="20">
<circle cx="10.5002" cy="9.99992" r="9.16667" fill="#D9D9D9"/>
</mask>
<g mask="url(#mask0_2318_1858)">
<rect x="0.5" width="20" height="20" fill="#D6B5FF"/>
</g>
<path fill-rule="evenodd" clip-rule="evenodd" d="M8.52785 9.01102C8.52785 8.55079 8.90095 8.17769 9.36119 8.17769H10.5002C10.9604 8.17769 11.3335 8.55079 11.3335 9.01102V12.8917H12.3384C12.7986 12.8917 13.1717 13.2648 13.1717 13.725C13.1717 14.1852 12.7986 14.5583 12.3384 14.5583H8.66195C8.20171 14.5583 7.82861 14.1852 7.82861 13.725C7.82861 13.2648 8.20171 12.8917 8.66195 12.8917H9.66684V9.84436H9.36119C8.90095 9.84436 8.52785 9.47126 8.52785 9.01102Z" fill="white"/>
<path d="M11.5274 6.53205C11.5274 7.13427 11.0392 7.62246 10.437 7.62246C9.83474 7.62246 9.34655 7.13427 9.34655 6.53205C9.34655 5.92984 9.83474 5.44165 10.437 5.44165C11.0392 5.44165 11.5274 5.92984 11.5274 6.53205Z" fill="white"/>
</svg>
